<?xml version="1.0" standalone="no"?><!DOCTYPE svg PUBLIC "-//W3C//DTD SVG 1.1//EN" "http://www.w3.org/Graphics/SVG/1.1/DTD/svg11.dtd"><svg t="1706964655259" class="icon" viewBox="0 0 1024 1024" version="1.1" xmlns="http://www.w3.org/2000/svg" p-id="6633" width="256" height="256" xmlns:xlink="http://www.w3.org/1999/xlink"><path d="M528 73.248L883.968 278.72a32 32 0 0 1 16 27.712v411.072a32 32 0 0 1-16 27.712L528 950.72a32 32 0 0 1-32 0L140.032 745.28a32 32 0 0 1-16-27.712V306.464a32 32 0 0 1 16-27.712L496 73.28a32 32 0 0 1 32 0z m19.584 231.36l-131.328 360.864 60.16 21.888 131.328-360.832-60.16-21.888z m-174.784 92.928L235.04 512.64l138.368 109.888 39.808-50.112-76.864-61.056 77.504-64.704-41.056-49.12z m274.08 0l-41.024 49.12 77.472 64.704-76.864 61.056 39.808 50.112 138.368-109.888-137.76-115.104z" fill="#3891ff" p-id="6634"></path></svg>